{
    "asset" : {
        "generator" : "Khronos glTF Blender I/O v1.2.75",
        "version" : "2.0"
    },
    "extensionsUsed" : [
        "KHR_materials_clearcoat"
    ],
    "scene" : 0,
    "scenes" : [
        {
            "name" : "Scene",
            "nodes" : [
                0,
                1,
                3
            ]
        }
    ],
    "nodes" : [
        {
            "name" : "Light",
            "rotation" : [
                0.16907575726509094,
                0.7558803558349609,
                -0.27217137813568115,
                0.570947527885437
            ],
            "translation" : [
                4.076245307922363,
                5.903861999511719,
                -1.0054539442062378
            ]
        },
        {
            "name" : "Camera",
            "rotation" : [
                0.5414767861366272,
                0.2502155601978302,
                -0.20132876932621002,
                0.7769567370414734
            ],
            "translation" : [
                6.95889139175415,
                3.918309211730957,
                9.605791091918945
            ]
        },
        {
            "mesh" : 0,
            "name" : "Cube.001"
        },
        {
            "children" : [
                2
            ],
            "name" : "floor.1",
            "rotation" : [
                0,
                598.7999877929688,
                0,
                -1
            ],
            "scale" : [
                0.25,
                0.25,
                0.25
            ],
            "translation" : [
                -1.0399999618530273,
                0.06879979372024536,
                1.6199991703033447
            ]
        }
    ],
    "materials" : [
        {
            "doubleSided" : true,
            "emissiveFactor" : [
                0,
                0,
                0
            ],
            "extensions" : {
                "KHR_materials_clearcoat" : {
                    "clearcoatFactor" : 0.07999999821186066,
                    "clearcoatRoughnessFactor" : 0.029999999329447746
                }
            },
            "name" : "Material.001",
            "pbrMetallicRoughness" : {
                "baseColorFactor" : [
                    0.6145387887954712,
                    0.652077317237854,
                    0.7420204281806946,
                    1
                ],
                "metallicFactor" : 0,
                "roughnessFactor" : 0.5
            }
        }
    ],
    "meshes" : [
        {
            "name" : "Cube.002",
            "primitives" : [
                {
                    "attributes" : {
                        "POSITION" : 0,
                        "NORMAL" : 1
                    },
                    "indices" : 2,
                    "material" : 0
                }
            ]
        }
    ],
    "accessors" : [
        {
            "bufferView" : 0,
            "componentType" : 5126,
            "count" : 3675,
            "max" : [
                14.836530685424805,
                5.850428581237793,
                15.28984260559082
            ],
            "min" : [
                -13.009807586669922,
                -0.312404990196228,
                -1.5329046249389648
            ],
            "type" : "VEC3"
        },
        {
            "bufferView" : 1,
            "componentType" : 5126,
            "count" : 3675,
            "type" : "VEC3"
        },
        {
            "bufferView" : 2,
            "componentType" : 5123,
            "count" : 3675,
            "type" : "SCALAR"
        }
    ],
    "bufferViews" : [
        {
            "buffer" : 0,
            "byteLength" : 44100,
            "byteOffset" : 0
        },
        {
            "buffer" : 0,
            "byteLength" : 44100,
            "byteOffset" : 44100
        },
        {
            "buffer" : 0,
            "byteLength" : 7350,
            "byteOffset" : 88200
        }
    ],
    "buffers" : [
        {
            "byteLength" : 95552,
            "uri" : "data:application/octet-stream;base64,"
        }
    ]
}
